# xmcd
# Track frame offsets:
# 150
# 1281
# 17158
# 51966
# 76729
# 85006
# 123218
# 139142
# 170982
# 201421
# 229609
# 255131
#
# Disc length: 3680 seconds
# Revision: 0
# Processed by: cddbd v1.5.2PL0 Copyright (c) Steve Scherf et al.
# Submitted via: VisiTrax 2.10.2.252 - For more info visit www.synapsa.com
#
DISCID=900e5e0c
DTITLE=Anthony Gomes - Live
DYEAR=2008
DGENRE=Bluesrock
TTITLE0=Countdown
TTITLE1=Up 2 zero
TTITLE2=Bluebird
TTITLE3=Heartbreaker
TTITLE4=Prelude in blues
TTITLE5=When the right woman does you wrong
TTITLE6=Falling
TTITLE7=War on war
TTITLE8=Won´t let you down
TTITLE9=Music is the medicine
TTITLE10=Wings of a song
TTITLE11=Testify
EXTD=
EXTT0=
EXTT1=
EXTT2=
EXTT3=
EXTT4=
EXTT5=
EXTT6=
EXTT7=
EXTT8=
EXTT9=
EXTT10=
EXTT11=
PLAYORDER=
